<svg width="53" height="53" viewBox="0 0 53 53" fill="none" xmlns="http://www.w3.org/2000/svg">
<g clip-path="url(#clip0_1633_10189)">
<path d="M52.6895 26.6631C52.6895 12.2104 40.9733 0.494141 26.5205 0.494141C12.0678 0.494141 0.351562 12.2104 0.351562 26.6631C0.351562 39.7246 9.92113 50.551 22.4316 52.5142V34.2276H15.7872V26.6631H22.4316V20.8978C22.4316 14.3392 26.3386 10.7164 32.3161 10.7164C35.1783 10.7164 38.1739 11.2275 38.1739 11.2275V17.6675H34.8742C31.6235 17.6675 30.6094 19.6849 30.6094 21.7564V26.6631H37.8672L36.707 34.2276H30.6094V52.5142C43.12 50.551 52.6895 39.7246 52.6895 26.6631Z" fill="#ECE0D8"/>
<path d="M36.707 34.228L37.8672 26.6635H30.6094V21.7568C30.6094 19.6873 31.6234 17.6679 34.8741 17.6679H38.1739V11.2279C38.1739 11.2279 35.1792 10.7168 32.316 10.7168C26.3385 10.7168 22.4316 14.3396 22.4316 20.8982V26.6635H15.7871V34.228H22.4316V52.5146C25.141 52.9385 27.8999 52.9385 30.6094 52.5146V34.228H36.707Z" fill="#131313"/>
</g>
<defs>
<clipPath id="clip0_1633_10189">
<rect width="52.338" height="52.338" fill="white" transform="translate(0.351562 0.494141)"/>
</clipPath>
</defs>
</svg>
