<svg width="1em" height="1em" viewBox="0 0 103 103" fill="none" xmlns="http://www.w3.org/2000/svg">
                        <g clipPath="url(#clip0_1177_3330)">
                            <path
                                d="M102.206 51.1031C102.206 22.8796 79.3266 0 51.1031 0C22.8796 0 0 22.8796 0 51.1031C0 76.6097 18.6876 97.7516 43.1182 101.585V65.8751H30.1428V51.1031H43.1182V39.8444C43.1182 27.0367 50.7478 19.9621 62.4206 19.9621C68.01 19.9621 73.8599 20.9603 73.8599 20.9603V33.5364H67.4162C61.0682 33.5364 59.0879 37.4759 59.0879 41.5213V51.1031H73.2611L70.9954 65.8751H59.0879V101.585C83.5186 97.7516 102.206 76.6097 102.206 51.1031Z"
                                fill="#ECE0D8"
                            />
                            <path
                                d="M70.9951 65.8751L73.2608 51.1031H59.0877V41.5213C59.0877 37.4799 61.0679 33.5364 67.4159 33.5364H73.8597V20.9603C73.8597 20.9603 68.0118 19.9622 62.4204 19.9622C50.7475 19.9622 43.118 27.0367 43.118 39.8445V51.1031H30.1426V65.8751H43.118V101.585C48.409 102.413 53.7966 102.413 59.0877 101.585V65.8751H70.9951Z"
                                fill="#131313"
                            />
                        </g>
                        <defs>
                            <clipPath id="clip0_1177_3330">
                                <rect width="102.206" height="102.206" fill="white" />
                            </clipPath>
                        </defs>
                    </svg>