<svg width="1em" height="1em" viewBox="0 0 139 139" fill="none" xmlns="http://www.w3.org/2000/svg">
                        <g clipPath="url(#clip0_1177_3349)">
                            <path
                                d="M69.334 12.4866C87.8618 12.4866 90.0559 12.5678 97.3424 12.8929C104.114 13.1908 107.771 14.3285 110.209 15.2766C113.432 16.5226 115.762 18.0395 118.173 20.4503C120.61 22.8881 122.1 25.1906 123.346 28.414C124.294 30.8518 125.432 34.5357 125.73 41.2805C126.055 48.5941 126.136 50.7881 126.136 69.2888C126.136 87.8166 126.055 90.0107 125.73 97.2972C125.432 104.069 124.294 107.726 123.346 110.164C122.1 113.387 120.583 115.717 118.173 118.127C115.735 120.565 113.432 122.055 110.209 123.301C107.771 124.249 104.087 125.387 97.3424 125.685C90.0288 126.01 87.8347 126.091 69.334 126.091C50.8062 126.091 48.6121 126.01 41.3256 125.685C34.5538 125.387 30.897 124.249 28.4591 123.301C25.2357 122.055 22.9062 120.538 20.4954 118.127C18.0575 115.69 16.5677 113.387 15.3217 110.164C14.3736 107.726 13.236 104.042 12.938 97.2972C12.613 89.9836 12.5317 87.7895 12.5317 69.2888C12.5317 50.7611 12.613 48.567 12.938 41.2805C13.236 34.5086 14.3736 30.8518 15.3217 28.414C16.5677 25.1906 18.0846 22.861 20.4954 20.4503C22.9333 18.0124 25.2357 16.5226 28.4591 15.2766C30.897 14.3285 34.5809 13.1908 41.3256 12.8929C48.6121 12.5678 50.8062 12.4866 69.334 12.4866ZM69.334 -0.000732422C50.5082 -0.000732422 48.1516 0.0805298 40.7568 0.405579C33.389 0.730627 28.3237 1.92247 23.9355 3.62898C19.3577 5.41675 15.4842 7.77335 11.6378 11.6469C7.76432 15.4933 5.40772 19.3668 3.61995 23.9174C1.91344 28.3327 0.721594 33.3709 0.396545 40.7387C0.0714966 48.1607 -0.00976562 50.5173 -0.00976562 69.343C-0.00976562 88.1688 0.0714966 90.5254 0.396545 97.9202C0.721594 105.288 1.91344 110.353 3.61995 114.742C5.40772 119.319 7.76432 123.193 11.6378 127.039C15.4842 130.886 19.3577 133.269 23.9084 135.03C28.3237 136.736 33.3619 137.928 40.7297 138.253C48.1246 138.578 50.4812 138.66 69.3069 138.66C88.1327 138.66 90.4893 138.578 97.8841 138.253C105.252 137.928 110.317 136.736 114.705 135.03C119.256 133.269 123.13 130.886 126.976 127.039C130.822 123.193 133.206 119.319 134.967 114.769C136.673 110.353 137.865 105.315 138.19 97.9473C138.515 90.5525 138.596 88.1959 138.596 69.3701C138.596 50.5444 138.515 48.1878 138.19 40.7929C137.865 33.4251 136.673 28.3598 134.967 23.9716C133.26 19.3668 130.904 15.4933 127.03 11.6469C123.184 7.80044 119.31 5.41675 114.76 3.65607C110.344 1.94956 105.306 0.757715 97.9383 0.432666C90.5163 0.0805298 88.1597 -0.000732422 69.334 -0.000732422Z"
                                fill="#ECE0D8"
                            />
                            <path
                                d="M69.3309 33.7227C49.6654 33.7227 33.7109 49.6771 33.7109 69.3426C33.7109 89.0081 49.6654 104.963 69.3309 104.963C88.9963 104.963 104.951 89.0081 104.951 69.3426C104.951 49.6771 88.9963 33.7227 69.3309 33.7227ZM69.3309 92.4482C56.5727 92.4482 46.2253 82.1008 46.2253 69.3426C46.2253 56.5844 56.5727 46.237 69.3309 46.237C82.089 46.237 92.4364 56.5844 92.4364 69.3426C92.4364 82.1008 82.089 92.4482 69.3309 92.4482Z"
                                fill="#ECE0D8"
                            />
                            <path
                                d="M114.679 32.3149C114.679 36.9197 110.94 40.6307 106.363 40.6307C101.758 40.6307 98.0469 36.8926 98.0469 32.3149C98.0469 27.71 101.785 23.999 106.363 23.999C110.94 23.999 114.679 27.7371 114.679 32.3149Z"
                                fill="#ECE0D8"
                            />
                        </g>
                        <defs>
                            <clipPath id="clip0_1177_3349">
                                <rect width="138.688" height="138.688" fill="white" />
                            </clipPath>
                        </defs>
                    </svg>