<svg width="53" height="53" viewBox="0 0 53 53" fill="none" xmlns="http://www.w3.org/2000/svg">
<g clip-path="url(#clip0_1633_10191)">
<path d="M26.3428 5.2066C33.3348 5.2066 34.1628 5.23727 36.9126 5.35994C39.4682 5.47238 40.8482 5.90172 41.7682 6.2595C42.9847 6.72972 43.8638 7.30217 44.7735 8.21195C45.6936 9.13195 46.2558 10.0008 46.726 11.2173C47.0838 12.1373 47.5131 13.5275 47.6256 16.0729C47.7482 18.8329 47.7789 19.6609 47.7789 26.6427C47.7789 33.6347 47.7482 34.4627 47.6256 37.2125C47.5131 39.7681 47.0838 41.1481 46.726 42.0681C46.2558 43.2845 45.6833 44.1636 44.7735 45.0734C43.8535 45.9934 42.9847 46.5556 41.7682 47.0259C40.8482 47.3836 39.458 47.813 36.9126 47.9254C34.1526 48.0481 33.3246 48.0788 26.3428 48.0788C19.3508 48.0788 18.5228 48.0481 15.773 47.9254C13.2174 47.813 11.8374 47.3836 10.9174 47.0259C9.70097 46.5556 8.82186 45.9832 7.91208 45.0734C6.99208 44.1534 6.42985 43.2845 5.95963 42.0681C5.60185 41.1481 5.17251 39.7578 5.06007 37.2125C4.9374 34.4525 4.90673 33.6245 4.90673 26.6427C4.90673 19.6507 4.9374 18.8227 5.06007 16.0729C5.17251 13.5173 5.60185 12.1373 5.95963 11.2173C6.42985 10.0008 7.0023 9.12173 7.91208 8.21195C8.83208 7.29194 9.70097 6.72972 10.9174 6.2595C11.8374 5.90172 13.2277 5.47238 15.773 5.35994C18.5228 5.23727 19.3508 5.2066 26.3428 5.2066ZM26.3428 0.494141C19.2383 0.494141 18.349 0.524807 15.5583 0.647475C12.7779 0.770142 10.8663 1.21992 9.21031 1.86392C7.48274 2.53859 6.02096 3.42793 4.5694 4.88971C3.10762 6.34127 2.21828 7.80306 1.54361 9.5204C0.899609 11.1866 0.449829 13.088 0.327162 15.8684C0.204495 18.6693 0.173828 19.5587 0.173828 26.6631C0.173828 33.7676 0.204495 34.6569 0.327162 37.4476C0.449829 40.2281 0.899609 42.1396 1.54361 43.7956C2.21828 45.5232 3.10762 46.985 4.5694 48.4365C6.02096 49.8881 7.48274 50.7877 9.20008 51.4521C10.8663 52.0961 12.7677 52.5459 15.5481 52.6686C18.3388 52.7912 19.2281 52.8219 26.3326 52.8219C33.4371 52.8219 34.3264 52.7912 37.1171 52.6686C39.8975 52.5459 41.8091 52.0961 43.4651 51.4521C45.1824 50.7877 46.6442 49.8881 48.0958 48.4365C49.5473 46.985 50.4469 45.5232 51.1113 43.8059C51.7554 42.1396 52.2051 40.2383 52.3278 37.4578C52.4505 34.6672 52.4811 33.7778 52.4811 26.6733C52.4811 19.5689 52.4505 18.6795 52.3278 15.8889C52.2051 13.1084 51.7554 11.1968 51.1113 9.54084C50.4673 7.80306 49.578 6.34127 48.1162 4.88971C46.6647 3.43815 45.2029 2.53859 43.4855 1.87415C41.8193 1.23014 39.918 0.780364 37.1375 0.657697C34.3366 0.524807 33.4473 0.494141 26.3428 0.494141Z" fill="#ECE0D8"/>
<path d="M26.3407 13.2207C18.9193 13.2207 12.8984 19.2416 12.8984 26.663C12.8984 34.0843 18.9193 40.1052 26.3407 40.1052C33.7621 40.1052 39.783 34.0843 39.783 26.663C39.783 19.2416 33.7621 13.2207 26.3407 13.2207ZM26.3407 35.3826C21.526 35.3826 17.6211 31.4777 17.6211 26.663C17.6211 21.8483 21.526 17.9434 26.3407 17.9434C31.1554 17.9434 35.0603 21.8483 35.0603 26.663C35.0603 31.4777 31.1554 35.3826 26.3407 35.3826Z" fill="#ECE0D8"/>
<path d="M43.4562 12.689C43.4562 14.4268 42.0455 15.8273 40.3179 15.8273C38.5801 15.8273 37.1797 14.4166 37.1797 12.689C37.1797 10.9512 38.5904 9.55078 40.3179 9.55078C42.0455 9.55078 43.4562 10.9615 43.4562 12.689Z" fill="#ECE0D8"/>
</g>
<defs>
<clipPath id="clip0_1633_10191">
<rect width="52.338" height="52.338" fill="white" transform="translate(0.175781 0.494141)"/>
</clipPath>
</defs>
</svg>
