<svg width="1em" height="1em" viewBox="0 0 103 103" fill="none" xmlns="http://www.w3.org/2000/svg">
                        <g clipPath="url(#clip0_1177_3340)">
                            <path
                                d="M94.6614 0H7.5448C5.5438 0 3.62475 0.794898 2.20982 2.20982C0.794898 3.62475 0 5.5438 0 7.5448V94.6614C0 96.6624 0.794898 98.5814 2.20982 99.9964C3.62475 101.411 5.5438 102.206 7.5448 102.206H94.6614C96.6624 102.206 98.5814 101.411 99.9964 99.9964C101.411 98.5814 102.206 96.6624 102.206 94.6614V7.5448C102.206 5.5438 101.411 3.62475 99.9964 2.20982C98.5814 0.794898 96.6624 0 94.6614 0ZM30.4631 87.0669H15.0967V38.2563H30.4631V87.0669ZM22.7693 31.4923C21.0262 31.4825 19.3251 30.9565 17.8807 29.9809C16.4363 29.0052 15.3132 27.6235 14.6533 26.0101C13.9934 24.3968 13.8261 22.6242 14.1727 20.9159C14.5193 19.2076 15.3642 17.6403 16.6006 16.4117C17.8371 15.1831 19.4099 14.3483 21.1203 14.0127C22.8308 13.6771 24.6024 13.8557 26.2114 14.526C27.8205 15.1963 29.1949 16.3281 30.1613 17.7788C31.1277 19.2295 31.6427 20.9339 31.6413 22.677C31.6578 23.844 31.4391 25.0024 30.9983 26.083C30.5576 27.1637 29.9037 28.1446 29.0758 28.9672C28.2479 29.7898 27.2629 30.4374 26.1794 30.8712C25.0959 31.305 23.9361 31.5162 22.7693 31.4923ZM87.1024 87.1095H71.7431V60.4436C71.7431 52.5794 68.4001 50.152 64.0847 50.152C59.528 50.152 55.0565 53.5873 55.0565 60.6423V87.1095H39.6901V38.2918H54.4674V45.0559H54.6661C56.1495 42.0536 61.345 36.922 69.2731 36.922C77.847 36.922 87.1095 42.011 87.1095 56.9161L87.1024 87.1095Z"
                                fill="#ECE0D8"
                            />
                        </g>
                        <defs>
                            <clipPath id="clip0_1177_3340">
                                <rect width="102.206" height="102.206" fill="white" />
                            </clipPath>
                        </defs>
                    </svg>