<svg width="53" height="53" viewBox="0 0 53 53" fill="none" xmlns="http://www.w3.org/2000/svg">
<g clip-path="url(#clip0_1633_10192)">
<path d="M48.5623 0.494141H3.95145C2.92677 0.494141 1.94406 0.901194 1.2195 1.62575C0.494944 2.35031 0.0878906 3.33302 0.0878906 4.3577V48.9685C0.0878906 49.9932 0.494944 50.9759 1.2195 51.7005C1.94406 52.4251 2.92677 52.8321 3.95145 52.8321H48.5623C49.587 52.8321 50.5697 52.4251 51.2942 51.7005C52.0188 50.9759 52.4259 49.9932 52.4259 48.9685V4.3577C52.4259 3.33302 52.0188 2.35031 51.2942 1.62575C50.5697 0.901194 49.587 0.494141 48.5623 0.494141ZM15.6875 45.0795H7.81865V20.0845H15.6875V45.0795ZM11.7476 16.6208C10.855 16.6157 9.98394 16.3464 9.24427 15.8468C8.50461 15.3472 7.92951 14.6396 7.59158 13.8135C7.25364 12.9873 7.16801 12.0796 7.34549 11.2048C7.52297 10.33 7.9556 9.5274 8.58879 8.89827C9.22197 8.26913 10.0273 7.84166 10.9032 7.66981C11.7791 7.49795 12.6863 7.58941 13.5103 7.93264C14.3343 8.27587 15.0381 8.85549 15.533 9.59836C16.0278 10.3412 16.2916 11.214 16.2909 12.1066C16.2993 12.7042 16.1873 13.2974 15.9616 13.8508C15.7359 14.4042 15.4011 14.9065 14.9771 15.3277C14.5531 15.749 14.0487 16.0806 13.4939 16.3027C12.939 16.5249 12.3452 16.633 11.7476 16.6208ZM44.6915 45.1013H36.8262V31.4462C36.8262 27.4191 35.1143 26.1761 32.9045 26.1761C30.5711 26.1761 28.2813 27.9352 28.2813 31.548V45.1013H20.4125V20.1027H27.9797V23.5665H28.0814C28.8411 22.029 31.5016 19.4012 35.5614 19.4012C39.952 19.4012 44.6951 22.0072 44.6951 29.6398L44.6915 45.1013Z" fill="#ECE0D8"/>
</g>
<defs>
<clipPath id="clip0_1633_10192">
<rect width="52.338" height="52.338" fill="white" transform="translate(0.0878906 0.494141)"/>
</clipPath>
</defs>
</svg>
