<svg width="1em" height="1em" viewBox="0 0 103 103" fill="none" xmlns="http://www.w3.org/2000/svg">
                        <g clipPath="url(#clip0_1177_3333)">
                            <path
                                d="M32.1418 92.6269C70.7103 92.6269 91.8057 60.6732 91.8057 32.9631C91.8057 32.0555 91.8057 31.152 91.7444 30.2526C95.8483 27.2841 99.3908 23.6087 102.206 19.3983C98.3794 21.0949 94.3194 22.207 90.1622 22.6975C94.5399 20.0771 97.8162 15.9552 99.3812 11.0991C95.2651 13.5419 90.7618 15.2633 86.0658 16.189C82.9042 12.8272 78.7227 10.601 74.1684 9.85511C69.6142 9.10919 64.941 9.88505 60.8722 12.0626C56.8033 14.2402 53.5655 17.6981 51.6599 21.9012C49.7542 26.1044 49.287 30.8184 50.3304 35.3138C41.9935 34.8956 33.8377 32.729 26.3924 28.9546C18.9471 25.1801 12.3787 19.8823 7.11355 13.4049C4.43204 18.0212 3.61074 23.4859 4.81689 28.6865C6.02304 33.8871 9.16594 38.4324 13.6057 41.3971C10.2685 41.2993 7.00388 40.399 4.08825 38.7725V39.0382C4.08957 43.8796 5.7655 48.5715 8.83177 52.318C11.898 56.0646 16.1659 58.6353 20.9114 59.5939C17.8242 60.436 14.5851 60.5591 11.443 59.9537C12.7835 64.12 15.3924 67.7632 18.9049 70.3742C22.4174 72.9851 26.658 74.4332 31.0339 74.516C26.6862 77.9334 21.7074 80.4601 16.3823 81.9515C11.0571 83.4429 5.49024 83.8697 0 83.2076C9.58964 89.3614 20.7475 92.6256 32.1418 92.6106"
                                fill="#ECE0D8"
                            />
                        </g>
                        <defs>
                            <clipPath id="clip0_1177_3333">
                                <rect width="102.206" height="102.206" fill="white" />
                            </clipPath>
                        </defs>
                    </svg>