<svg width="53" height="53" viewBox="0 0 53 53" fill="none" xmlns="http://www.w3.org/2000/svg">
<g clip-path="url(#clip0_1633_10190)">
<path d="M16.7229 47.9277C36.4732 47.9277 47.2757 31.5648 47.2757 17.3749C47.2757 16.9101 47.2757 16.4475 47.2443 15.9869C49.3459 14.4668 51.1599 12.5847 52.6016 10.4286C50.642 11.2974 48.563 11.8669 46.4341 12.1181C48.6759 10.7762 50.3536 8.66548 51.155 6.17876C49.0472 7.42966 46.7412 8.31115 44.3364 8.78519C42.7174 7.06366 40.5762 5.9237 38.244 5.54173C35.9119 5.15976 33.5188 5.55706 31.4352 6.67216C29.3516 7.78726 27.6936 9.55799 26.7178 11.7103C25.7419 13.8627 25.5027 16.2766 26.037 18.5787C21.7678 18.3645 17.5914 17.255 13.7788 15.3222C9.96616 13.3894 6.60259 10.6765 3.90639 7.35951C2.53324 9.72343 2.11267 12.5218 2.73032 15.185C3.34796 17.8481 4.95739 20.1757 7.2309 21.6938C5.52196 21.6438 3.85023 21.1827 2.35719 20.3498V20.4859C2.35787 22.965 3.21608 25.3677 4.78626 27.2862C6.35644 29.2048 8.54193 30.5212 10.972 31.0121C9.39115 31.4433 7.73246 31.5063 6.12343 31.1963C6.80987 33.3298 8.14583 35.1954 9.94454 36.5325C11.7432 37.8695 13.9148 38.611 16.1556 38.6534C13.9292 40.4034 11.3796 41.6973 8.65274 42.461C5.92584 43.2247 3.07512 43.4433 0.263672 43.1042C5.17435 46.2555 10.8881 47.927 16.7229 47.9193" fill="#ECE0D8"/>
</g>
<defs>
<clipPath id="clip0_1633_10190">
<rect width="52.338" height="52.338" fill="white" transform="translate(0.263672 0.494141)"/>
</clipPath>
</defs>
</svg>
